<svg width="40" height="35" viewBox="0 0 40 35" fill="none" xmlns="http://www.w3.org/2000/svg">
<path d="M40 5.39117V11.7357L38.4888 11.7844C36.7953 11.8391 35.4688 13.1907 35.4688 14.861C35.4688 15.2995 35.5609 15.716 35.7266 16.0929H32.4695C32.3871 15.6914 32.3438 15.2794 32.3438 14.861C32.3438 13.2517 32.97 11.7291 34.1068 10.5742C34.8798 9.78897 35.8319 9.23078 36.875 8.93846V5.39117C36.875 4.54217 36.174 3.85136 35.3125 3.85136H28.75C27.8885 3.85136 27.1875 4.54217 27.1875 5.39117H24.0625C24.0625 4.54217 23.3615 3.85136 22.5 3.85136H4.6875C3.82599 3.85136 3.125 4.54217 3.125 5.39117V8.89666C5.81757 9.58205 7.8125 11.9961 7.8125 14.861C7.8125 17.7259 5.81757 20.14 3.125 20.8254V23.8689C3.125 24.7179 3.82599 25.4088 4.6875 25.4088H21.4062V28.4884H4.6875C2.10266 28.4884 0 26.4163 0 23.8689V17.9407H1.5625C3.28552 17.9407 4.6875 16.559 4.6875 14.861C4.6875 13.163 3.28552 11.7814 1.5625 11.7814H0V5.39117C0 2.84386 2.10266 0.771729 4.6875 0.771729H22.5C23.6996 0.771729 24.7949 1.21864 25.625 1.95185C26.4551 1.21864 27.5504 0.771729 28.75 0.771729H35.3125C37.8973 0.771729 40 2.84386 40 5.39117ZM27.1875 8.54779H24.0625V11.6274H27.1875V8.54779ZM24.0625 17.0168H27.1875V13.9371H24.0625V17.0168ZM24.0625 22.4061H27.1875V19.3265H24.0625V22.4061ZM33.8281 19.3265H30.7031V25.4088H24.5312V28.4884H30.7031V34.5707H33.8281V28.4884H40V25.4088H33.8281V19.3265Z" fill="url(#paint0_linear_157_1489)"/>
<defs>
<linearGradient id="paint0_linear_157_1489" x1="20" y1="0.771729" x2="20" y2="34.5707" gradientUnits="userSpaceOnUse">
<stop stop-color="#EC7AB7"/>
<stop offset="1" stop-color="#EC7A7A"/>
</linearGradient>
</defs>
</svg>
