<svg width="137" height="50" viewBox="0 0 137 50" fill="none" xmlns="http://www.w3.org/2000/svg">
<path d="M4.92188 30.1094L3.375 34H0.0117188L7.41797 16.9492H9.99609L17.3203 34H13.8633L12.2812 30.1094H4.92188ZM5.94141 27.4961H11.2266L9.38672 22.9023C9.09766 22.1758 8.83203 21.4023 8.58984 20.582C8.34766 21.4336 8.07422 22.2344 7.76953 22.9844L5.94141 27.4961ZM30.7383 15.8359V34H27.9609V32.3711C27.5469 32.918 27.0195 33.3711 26.3789 33.7305C25.7383 34.0898 24.9531 34.2695 24.0234 34.2695C22.3672 34.2695 21 33.7148 19.9219 32.6055C18.8516 31.4961 18.3164 30.043 18.3164 28.2461C18.3164 26.457 18.8633 24.9961 19.957 23.8633C21.0508 22.7227 22.4023 22.1523 24.0117 22.1523C24.9023 22.1523 25.6953 22.332 26.3906 22.6914C26.9141 22.957 27.4023 23.3672 27.8555 23.9219V15.8359H30.7383ZM28.0078 28.1172C28.0078 27.1406 27.6953 26.3438 27.0703 25.7266C26.4453 25.1016 25.6367 24.7891 24.6445 24.7891C23.668 24.7891 22.8633 25.1133 22.2305 25.7617C21.5977 26.4102 21.2812 27.2656 21.2812 28.3281C21.2812 29.3203 21.6055 30.1406 22.2539 30.7891C22.9023 31.4297 23.7148 31.75 24.6914 31.75C25.6289 31.75 26.4141 31.418 27.0469 30.7539C27.6875 30.0898 28.0078 29.2109 28.0078 28.1172ZM37.0078 34H34.125V26.8398C34.125 25.0898 34.1133 23.6289 34.0898 22.457H36.832V24.2617C37.2773 23.5586 37.7852 23.0391 38.3555 22.7031C38.9336 22.3594 39.6289 22.1875 40.4414 22.1875C41.3633 22.1875 42.1445 22.4102 42.7852 22.8555C43.2461 23.1758 43.6445 23.6758 43.9805 24.3555C44.3945 23.6367 44.8945 23.0977 45.4805 22.7383C46.0742 22.3711 46.8047 22.1875 47.6719 22.1875C48.4375 22.1875 49.0977 22.3281 49.6523 22.6094C50.207 22.8828 50.6484 23.2461 50.9766 23.6992C51.3047 24.1523 51.5312 24.6641 51.6562 25.2344C51.7891 25.8125 51.8555 26.6055 51.8555 27.6133V34H48.9727V27.6016C48.9727 26.9141 48.9062 26.3828 48.7734 26.0078C48.6484 25.625 48.418 25.3203 48.082 25.0938C47.7539 24.8594 47.3555 24.7422 46.8867 24.7422C46.4805 24.7422 46.1055 24.8281 45.7617 25C45.4258 25.1719 45.1523 25.4023 44.9414 25.6914C44.7383 25.9727 44.6016 26.2969 44.5312 26.6641C44.4531 27.0312 44.4141 27.5078 44.4141 28.0938V34H41.5312V28.0586C41.5312 27.0664 41.4766 26.3828 41.3672 26.0078C41.2578 25.6328 41.0273 25.3242 40.6758 25.082C40.332 24.8398 39.918 24.7188 39.4336 24.7188C38.9492 24.7188 38.5078 24.8555 38.1094 25.1289C37.7109 25.4023 37.4258 25.7656 37.2539 26.2188C37.0898 26.6719 37.0078 27.3164 37.0078 28.1523V34ZM56.4609 16.7148C56.9609 16.7148 57.3828 16.8906 57.7266 17.2422C58.0781 17.5938 58.2539 18.0156 58.2539 18.5078C58.2539 19.0078 58.0781 19.4336 57.7266 19.7852C57.375 20.1289 56.9531 20.3008 56.4609 20.3008C55.9609 20.3008 55.5352 20.1289 55.1836 19.7852C54.8398 19.4336 54.668 19.0078 54.668 18.5078C54.668 18.0156 54.8398 17.5938 55.1836 17.2422C55.5352 16.8906 55.9609 16.7148 56.4609 16.7148ZM57.9023 22.457V34H55.0195V22.457H57.9023ZM64.1367 34H61.2539V26.8398C61.2539 25.0898 61.2422 23.6289 61.2188 22.457H63.9609V24.332C64.3438 23.6836 64.8281 23.1719 65.4141 22.7969C66 22.4141 66.7539 22.2227 67.6758 22.2227C68.4805 22.2227 69.1641 22.375 69.7266 22.6797C70.2969 22.9844 70.7383 23.3555 71.0508 23.793C71.3633 24.2305 71.5742 24.7031 71.6836 25.2109C71.8008 25.7188 71.8594 26.5703 71.8594 27.7656V34H68.9766V27.7891C68.9766 27.0156 68.9023 26.4375 68.7539 26.0547C68.6133 25.6719 68.3672 25.3672 68.0156 25.1406C67.6719 24.9062 67.2695 24.7891 66.8086 24.7891C66.2305 24.7891 65.7188 24.9414 65.2734 25.2461C64.8281 25.5508 64.5156 25.9766 64.3359 26.5234C64.2031 26.9297 64.1367 27.6602 64.1367 28.7148V34Z" fill="url(#paint0_linear_176_1823)"/>
<g clip-path="url(#clip0_176_1823)">
<path d="M114.943 38.1372H110.056V43.9422H114.943V38.1372Z" fill="#FDCC9B"/>
<path d="M110.056 38.8208C110.056 38.8208 112.112 40.2091 114.943 39.8875V38.137H110.056V38.8208Z" fill="#FCBC85"/>
<path d="M103.01 32.021C104.326 32.021 105.394 30.7292 105.394 29.1356C105.394 27.5421 104.326 26.2502 103.01 26.2502C101.693 26.2502 100.625 27.5421 100.625 29.1356C100.625 30.7292 101.693 32.021 103.01 32.021Z" fill="#FCBC85"/>
<path d="M121.99 32.021C123.307 32.021 124.375 30.7292 124.375 29.1356C124.375 27.5421 123.307 26.2502 121.99 26.2502C120.673 26.2502 119.605 27.5421 119.605 29.1356C119.605 30.7292 120.673 32.021 121.99 32.021Z" fill="#FCBC85"/>
<path d="M121.981 23.6244C121.981 19.3744 119.048 16.2644 112.5 16.2644C105.952 16.2644 103.019 19.3743 103.019 23.6244C103.019 27.8746 102.335 39.0701 112.5 39.0701C122.665 39.0701 121.981 27.8746 121.981 23.6244Z" fill="#FDCC9B"/>
<path d="M107.882 29.6367C108.449 29.6367 108.908 29.103 108.908 28.4446C108.908 27.7862 108.449 27.2524 107.882 27.2524C107.315 27.2524 106.855 27.7862 106.855 28.4446C106.855 29.103 107.315 29.6367 107.882 29.6367Z" fill="#3B2519"/>
<path d="M107.434 28.2438C107.604 28.2438 107.741 28.098 107.741 27.9183C107.741 27.7385 107.604 27.5928 107.434 27.5928C107.265 27.5928 107.127 27.7385 107.127 27.9183C107.127 28.098 107.265 28.2438 107.434 28.2438Z" fill="white"/>
<path d="M106.24 25.4902C106.726 25.7476 107.505 24.6156 109.288 25.6004C109.614 25.7799 109.808 24.0649 107.896 24.0649C106.24 24.0649 105.947 25.3348 106.24 25.4902Z" fill="#51362A"/>
<path d="M117.244 29.6367C117.811 29.6367 118.27 29.103 118.27 28.4446C118.27 27.7862 117.811 27.2524 117.244 27.2524C116.677 27.2524 116.218 27.7862 116.218 28.4446C116.218 29.103 116.677 29.6367 117.244 29.6367Z" fill="#3B2519"/>
<path d="M116.797 28.2438C116.966 28.2438 117.104 28.098 117.104 27.9183C117.104 27.7385 116.966 27.5928 116.797 27.5928C116.627 27.5928 116.49 27.7385 116.49 27.9183C116.49 28.098 116.627 28.2438 116.797 28.2438Z" fill="white"/>
<path d="M118.759 25.4902C118.274 25.7476 117.495 24.6156 115.711 25.6004C115.386 25.7799 115.192 24.0649 117.104 24.0649C118.759 24.0649 119.052 25.3348 118.759 25.4902Z" fill="#51362A"/>
<path d="M112.5 32.6379C111.486 32.6379 110.875 31.8346 110.875 32.2232C110.875 32.612 111.168 33.3506 112.5 33.3506C113.832 33.3506 114.125 32.612 114.125 32.2232C114.125 31.8344 113.514 32.6379 112.5 32.6379Z" fill="#FCBC85"/>
<path d="M112.5 36.2119C112.149 36.2119 111.938 35.934 111.938 36.0685C111.938 36.2031 112.039 36.4584 112.5 36.4584C112.96 36.4584 113.062 36.2031 113.062 36.0685C113.062 35.934 112.85 36.2119 112.5 36.2119Z" fill="#FCBC85"/>
<path d="M112.5 35.2216C110.892 35.2216 109.924 34.5274 109.924 34.7034C109.924 34.8794 110.389 35.5716 112.5 35.5716C114.61 35.5716 115.075 34.8794 115.075 34.7034C115.075 34.5274 114.107 35.2216 112.5 35.2216Z" fill="#F7945E"/>
<path d="M112.5 40.4692V47H100.625C100.625 44.3565 106.88 40.4692 112.5 40.4692Z" fill="#F7941E"/>
<path d="M112.5 40.4692V47H124.375C124.375 44.3565 118.12 40.4692 112.5 40.4692Z" fill="#F7941E"/>
<path d="M112.5 40.4692C111.305 40.4692 110.081 40.6464 108.894 40.9488C108.902 40.96 110.21 42.7498 112.5 42.7498C114.62 42.7498 116.03 41.217 116.234 40.9813C115.008 40.6584 113.738 40.4692 112.5 40.4692Z" fill="#F36C21"/>
<path d="M110.056 40.6955C110.056 40.6955 110.771 41.6357 112.5 41.6357C114.228 41.6357 114.943 40.6955 114.943 40.6955C114.943 40.6955 112.408 39.7167 110.056 40.6955Z" fill="#FDCC9B"/>
<path d="M120.294 15.3575C120.294 15.3575 116.776 10.6151 109.463 12.4032C102.15 14.1911 101.602 18.856 101.822 23.3945C102.042 27.9331 102.628 30.5956 103.322 30.2666C104.015 29.9374 103.654 26.9416 103.728 26.2503C103.801 25.5589 104.461 22.4323 108.908 22.8988C113.356 23.3654 117.104 21.6548 117.104 21.6548C117.104 21.6548 118.612 23.6775 119.605 24.065C121.589 24.8393 120.939 30.0019 121.716 30.0019C122.493 30.0019 126.305 18.0786 120.294 15.3575Z" fill="#51362A"/>
</g>
<circle cx="112" cy="25" r="23.5" stroke="url(#paint1_linear_176_1823)" stroke-width="3"/>
<defs>
<linearGradient id="paint0_linear_176_1823" x1="-3.96429" y1="28" x2="74" y2="28" gradientUnits="userSpaceOnUse">
<stop stop-color="#EC7A7A"/>
<stop offset="1" stop-color="#EC7AB7"/>
</linearGradient>
<linearGradient id="paint1_linear_176_1823" x1="87" y1="25" x2="137" y2="25" gradientUnits="userSpaceOnUse">
<stop stop-color="#EC7AB7"/>
<stop offset="1" stop-color="#EC7A7A"/>
</linearGradient>
<clipPath id="clip0_176_1823">
<rect width="33" height="35" fill="white" transform="translate(96 12)"/>
</clipPath>
</defs>
</svg>
