<svg width="61" height="61" viewBox="0 0 61 61" fill="none" xmlns="http://www.w3.org/2000/svg">
<path d="M0.875558 40.3637L60.1244 40.3639C60.397 40.3639 60.6539 40.2369 60.8196 40.0205C60.9854 39.8041 61.0408 39.523 60.9696 39.2599C59.3577 33.2964 55.769 27.9163 50.8648 24.1106C45.8033 20.183 39.7291 18.1069 33.2988 18.1069H17.5279V15.8196C17.5279 15.3361 17.1359 14.9441 16.6524 14.9441H5.97981C5.49625 14.9441 5.10425 15.3361 5.10425 15.8196V18.1069H0.875558C0.392 18.1069 0 18.4989 0 18.9825V22.7243V29.2354V39.4883C0 39.9717 0.392 40.3637 0.875558 40.3637ZM1.75112 24.5852L5.90314 26.627V28.3598H1.75112V24.5852ZM32.1789 24.4206L49.9815 28.3597H32.1789V24.4206ZM33.299 19.8581C36.8596 19.8581 40.3036 20.5365 43.5047 21.8487H31.3033C30.8198 21.8487 30.4278 22.2407 30.4278 22.7243V29.2354C30.4278 29.719 30.8198 30.111 31.3033 30.111H54.4353C56.4337 32.6487 57.9762 35.5362 58.9547 38.6129L1.75112 38.6126V30.1108H6.77869C7.26225 30.1108 7.65425 29.7188 7.65425 29.2353V22.7241C7.65425 22.2406 7.26225 21.8486 6.77869 21.8486H1.75112V19.8579H33.299V19.8581Z" fill="white"/>
<path d="M60.1244 41.4803H0.875558C0.392 41.4803 0 41.8723 0 42.3559V45.1806C0 45.6641 0.392 46.0561 0.875558 46.0561H57.2996C59.3401 46.0561 61 44.3963 61 42.3559C61 41.8723 60.608 41.4803 60.1244 41.4803Z" fill="white"/>
<path d="M20.6109 36.6221H27.3392C27.8228 36.6221 28.2148 36.2301 28.2148 35.7465V22.7243C28.2148 22.2407 27.8228 21.8487 27.3392 21.8487H20.6109C20.1274 21.8487 19.7354 22.2407 19.7354 22.7243V35.7465C19.7354 36.2301 20.1272 36.6221 20.6109 36.6221ZM21.4865 34.871V24.3822L26.4636 26.8299V34.871H21.4865Z" fill="white"/>
<path d="M10.7427 30.1108H16.6459C17.1294 30.1108 17.5214 29.7188 17.5214 29.2353V22.7241C17.5214 22.2406 17.1294 21.8486 16.6459 21.8486H10.7427C10.2592 21.8486 9.86719 22.2406 9.86719 22.7241V29.2353C9.86719 29.719 10.2592 30.1108 10.7427 30.1108ZM11.6183 28.3597V24.5851L15.7703 26.6269V28.3597H11.6183Z" fill="white"/>
</svg>
