<svg width="118" height="50" viewBox="0 0 118 50" fill="none" xmlns="http://www.w3.org/2000/svg">
<path d="M4.92188 30.1094L3.375 34H0.0117188L7.41797 16.9492H9.99609L17.3203 34H13.8633L12.2812 30.1094H4.92188ZM5.94141 27.4961H11.2266L9.38672 22.9023C9.09766 22.1758 8.83203 21.4023 8.58984 20.582C8.34766 21.4336 8.07422 22.2344 7.76953 22.9844L5.94141 27.4961ZM21.9023 34H19.0195V26.8398C19.0195 25.0898 19.0078 23.6289 18.9844 22.457H21.7266V24.332C22.1094 23.6836 22.5938 23.1719 23.1797 22.7969C23.7656 22.4141 24.5195 22.2227 25.4414 22.2227C26.2461 22.2227 26.9297 22.375 27.4922 22.6797C28.0625 22.9844 28.5039 23.3555 28.8164 23.793C29.1289 24.2305 29.3398 24.7031 29.4492 25.2109C29.5664 25.7188 29.625 26.5703 29.625 27.7656V34H26.7422V27.7891C26.7422 27.0156 26.668 26.4375 26.5195 26.0547C26.3789 25.6719 26.1328 25.3672 25.7812 25.1406C25.4375 24.9062 25.0352 24.7891 24.5742 24.7891C23.9961 24.7891 23.4844 24.9414 23.0391 25.2461C22.5938 25.5508 22.2812 25.9766 22.1016 26.5234C21.9688 26.9297 21.9023 27.6602 21.9023 28.7148V34ZM39.8086 22.457V24.8594H36.6445V29.6875C36.6445 30.3984 36.7344 30.8945 36.9141 31.1758C37.1797 31.582 37.6523 31.7852 38.332 31.7852C38.8789 31.7852 39.3906 31.6758 39.8672 31.457L39.8906 33.9062C39.1562 34.1328 38.3828 34.2461 37.5703 34.2461C36.5312 34.2461 35.7266 34.0586 35.1562 33.6836C34.5859 33.3086 34.1953 32.8008 33.9844 32.1602C33.8594 31.7695 33.7969 31.0273 33.7969 29.9336V24.8594H31.3945V22.457H33.8438V19.1406H36.6445V22.457H39.8086ZM54.0703 28.5625C54.0703 29.0234 53.9648 29.6172 53.7539 30.3438C53.5508 31.0625 53.1797 31.7266 52.6406 32.3359C52.1094 32.9453 51.4375 33.4336 50.625 33.8008C49.8203 34.1602 48.8398 34.3398 47.6836 34.3398C45.832 34.3398 44.3398 33.7734 43.207 32.6406C42.0742 31.5078 41.5078 30.0273 41.5078 28.1992C41.5078 26.3555 42.1172 24.8789 43.3359 23.7695C44.5547 22.6523 46.0469 22.0938 47.8125 22.0938C48.7734 22.0938 49.6602 22.2539 50.4727 22.5742C51.293 22.8945 51.9922 23.3867 52.5703 24.0508C53.1484 24.7148 53.5664 25.4805 53.8242 26.3477C53.9883 26.8945 54.0703 27.6328 54.0703 28.5625ZM51.1406 28.3516C51.1406 27.2891 50.8594 26.4062 50.2969 25.7031C49.7422 25 48.9141 24.6484 47.8125 24.6484C46.8438 24.6484 46.0391 24.9805 45.3984 25.6445C44.7578 26.3008 44.4375 27.1719 44.4375 28.2578C44.4375 29.3438 44.7461 30.2148 45.3633 30.8711C45.9883 31.5195 46.7734 31.8438 47.7188 31.8438C48.3984 31.8438 49.0039 31.6836 49.5352 31.3633C50.0742 31.043 50.4766 30.6133 50.7422 30.0742C51.0078 29.5352 51.1406 28.9609 51.1406 28.3516Z" fill="url(#paint0_linear_40_228)"/>
<g clip-path="url(#clip0_40_228)">
<path d="M95.9433 38.137H91.0564V43.942H95.9433V38.137Z" fill="#FDCC9B"/>
<path d="M91.0566 38.8206C91.0566 38.8206 93.1123 40.209 95.9436 39.8874V38.1368H91.0566V38.8206Z" fill="#FCBC85"/>
<path d="M84.0098 32.021C85.3267 32.021 86.3943 30.7291 86.3943 29.1356C86.3943 27.542 85.3267 26.2502 84.0098 26.2502C82.6928 26.2502 81.6252 27.542 81.6252 29.1356C81.6252 30.7291 82.6928 32.021 84.0098 32.021Z" fill="#FCBC85"/>
<path d="M102.99 32.021C104.307 32.021 105.375 30.7291 105.375 29.1356C105.375 27.542 104.307 26.2502 102.99 26.2502C101.673 26.2502 100.606 27.542 100.606 29.1356C100.606 30.7291 101.673 32.021 102.99 32.021Z" fill="#FCBC85"/>
<path d="M102.981 23.6243C102.981 19.3743 100.048 16.2643 93.5 16.2643C86.9516 16.2643 84.0194 19.3741 84.0194 23.6243C84.0194 27.8745 83.3353 39.0699 93.5 39.0699C103.665 39.0699 102.981 27.8745 102.981 23.6243Z" fill="#FDCC9B"/>
<path d="M88.8822 29.6367C89.449 29.6367 89.9085 29.1029 89.9085 28.4445C89.9085 27.7861 89.449 27.2524 88.8822 27.2524C88.3154 27.2524 87.856 27.7861 87.856 28.4445C87.856 29.1029 88.3154 29.6367 88.8822 29.6367Z" fill="#3B2519"/>
<path d="M88.4348 28.2437C88.6043 28.2437 88.7417 28.0979 88.7417 27.9182C88.7417 27.7384 88.6043 27.5927 88.4348 27.5927C88.2653 27.5927 88.1279 27.7384 88.1279 27.9182C88.1279 28.0979 88.2653 28.2437 88.4348 28.2437Z" fill="white"/>
<path d="M87.2405 25.4902C87.7258 25.7476 88.505 24.6156 90.2887 25.6004C90.6139 25.7799 90.8079 24.0649 88.896 24.0649C87.2405 24.0649 86.9473 25.3348 87.2405 25.4902Z" fill="#51362A"/>
<path d="M98.2445 29.6367C98.8113 29.6367 99.2708 29.1029 99.2708 28.4445C99.2708 27.7861 98.8113 27.2524 98.2445 27.2524C97.6777 27.2524 97.2183 27.7861 97.2183 28.4445C97.2183 29.1029 97.6777 29.6367 98.2445 29.6367Z" fill="#3B2519"/>
<path d="M97.7971 28.2437C97.9666 28.2437 98.104 28.0979 98.104 27.9182C98.104 27.7384 97.9666 27.5927 97.7971 27.5927C97.6276 27.5927 97.4902 27.7384 97.4902 27.9182C97.4902 28.0979 97.6276 28.2437 97.7971 28.2437Z" fill="white"/>
<path d="M99.7595 25.4902C99.2742 25.7476 98.495 24.6156 96.7113 25.6004C96.3861 25.7799 96.1921 24.0649 98.1042 24.0649C99.7595 24.0649 100.053 25.3348 99.7595 25.4902Z" fill="#51362A"/>
<path d="M93.4999 32.6377C92.4858 32.6377 91.875 31.8344 91.875 32.223C91.875 32.6118 92.1683 33.3505 93.4999 33.3505C94.8316 33.3505 95.1249 32.6118 95.1249 32.223C95.1249 31.8342 94.5139 32.6377 93.4999 32.6377Z" fill="#FCBC85"/>
<path d="M93.5001 36.2119C93.1493 36.2119 92.938 35.934 92.938 36.0685C92.938 36.2031 93.0394 36.4584 93.5001 36.4584C93.9608 36.4584 94.062 36.2031 94.062 36.0685C94.062 35.934 93.8507 36.2119 93.5001 36.2119Z" fill="#FCBC85"/>
<path d="M93.5 35.2215C91.8927 35.2215 90.9243 34.5273 90.9243 34.7032C90.9243 34.8792 91.3892 35.5715 93.5 35.5715C95.6109 35.5715 96.0757 34.8792 96.0757 34.7032C96.0756 34.5273 95.1073 35.2215 93.5 35.2215Z" fill="#F7945E"/>
<path d="M93.5 40.4692V47H81.6252C81.6252 44.3565 87.8801 40.4692 93.5 40.4692Z" fill="#F7941E"/>
<path d="M93.5 40.4692V47H105.375C105.375 44.3565 99.1199 40.4692 93.5 40.4692Z" fill="#F7941E"/>
<path d="M93.5001 40.4692C92.3047 40.4692 91.0808 40.6464 89.8943 40.9488C89.9023 40.96 91.2103 42.7498 93.5001 42.7498C95.6204 42.7498 97.0301 41.217 97.2344 40.9813C96.0078 40.6584 94.7387 40.4692 93.5001 40.4692Z" fill="#F36C21"/>
<path d="M91.0564 40.6953C91.0564 40.6953 91.7711 41.6355 93.4998 41.6355C95.2284 41.6355 95.9433 40.6953 95.9433 40.6953C95.9433 40.6953 93.4083 39.7165 91.0564 40.6953Z" fill="#FDCC9B"/>
<path d="M101.295 15.3574C101.295 15.3574 97.776 10.615 90.463 12.4031C83.1501 14.191 82.6022 18.8559 82.8221 23.3944C83.0421 27.933 83.6284 30.5955 84.322 30.2665C85.0156 29.9373 84.6547 26.9415 84.728 26.2502C84.8013 25.5588 85.461 22.4322 89.9087 22.8987C94.3562 23.3653 98.1042 21.6548 98.1042 21.6548C98.1042 21.6548 99.6129 23.6774 100.606 24.065C102.59 24.8392 101.939 30.0018 102.716 30.0018C103.494 30.0018 107.305 18.0785 101.295 15.3574Z" fill="#51362A"/>
</g>
<circle cx="93" cy="25" r="23.5" stroke="url(#paint1_linear_40_228)" stroke-width="3"/>
<defs>
<linearGradient id="paint0_linear_40_228" x1="-3" y1="28" x2="56" y2="28" gradientUnits="userSpaceOnUse">
<stop stop-color="#EC7A7A"/>
<stop offset="1" stop-color="#EC7AB7"/>
</linearGradient>
<linearGradient id="paint1_linear_40_228" x1="68" y1="25" x2="118" y2="25" gradientUnits="userSpaceOnUse">
<stop stop-color="#EC7AB7"/>
<stop offset="1" stop-color="#EC7A7A"/>
</linearGradient>
<clipPath id="clip0_40_228">
<rect width="33" height="35" fill="white" transform="translate(77 12)"/>
</clipPath>
</defs>
</svg>
